<svg width="45" height="45" viewBox="0 0 45 45" fill="none" xmlns="http://www.w3.org/2000/svg">
<path d="M32.8125 32.8125L41.25 41.25M37.5 20.625C37.5 16.1495 35.7221 11.8572 32.5574 8.69257C29.3927 5.5279 25.1005 3.75 20.625 3.75C16.1495 3.75 11.8572 5.5279 8.69257 8.69257C5.5279 11.8572 3.75 16.1495 3.75 20.625C3.75 25.1005 5.5279 29.3927 8.69257 32.5574C11.8572 35.7221 16.1495 37.5 20.625 37.5C25.1005 37.5 29.3927 35.7221 32.5574 32.5574C35.7221 29.3927 37.5 25.1005 37.5 20.625Z" stroke="black" stroke-width="1.5" stroke-linecap="round" stroke-linejoin="round"/>
<path d="M12.1875 26.25L15.6412 15.8887C15.7279 15.6301 15.8937 15.4053 16.1151 15.2461C16.3365 15.0868 16.6023 15.0011 16.875 15.0011C17.1477 15.0011 17.4135 15.0868 17.6349 15.2461C17.8563 15.4053 18.0221 15.6301 18.1087 15.8887L21.5625 26.25M27.1875 15V26.25M14.0625 22.5H19.6875" stroke="black" stroke-width="1.5" stroke-linecap="round" stroke-linejoin="round"/>
</svg>
