<svg width="145" height="145" viewBox="0 0 145 145" fill="none" xmlns="http://www.w3.org/2000/svg">
<path d="M96.8781 81.5625L78.1792 100.267C76.4791 101.967 75.5237 104.272 75.5231 106.676C75.5225 109.079 76.4769 111.385 78.1762 113.085C79.8754 114.785 82.1805 115.74 84.5842 115.741C86.988 115.742 89.2935 114.787 90.9936 113.088L125.171 78.9102C126.013 78.0686 126.681 77.0693 127.137 75.9694C127.593 74.8695 127.828 73.6906 127.828 72.5C127.828 71.3094 127.593 70.1305 127.137 69.0306C126.681 67.9307 126.013 66.9314 125.171 66.0898L90.9996 31.9121C90.1578 31.0703 89.1584 30.4025 88.0586 29.9469C86.9587 29.4914 85.7799 29.2569 84.5894 29.2569C83.3989 29.2569 82.2201 29.4914 81.1202 29.9469C80.0203 30.4025 79.021 31.0703 78.1792 31.9121C77.3374 32.7539 76.6696 33.7532 76.214 34.8531C75.7585 35.953 75.524 37.1318 75.524 38.3223C75.524 39.5128 75.7585 40.6916 76.214 41.7915C76.6696 42.8913 77.3374 43.8907 78.1792 44.7325L96.8781 63.4375H27.1875C24.784 63.4375 22.4789 64.3923 20.7793 66.0918C19.0798 67.7914 18.125 70.0965 18.125 72.5C18.125 74.9035 19.0798 77.2086 20.7793 78.9081C22.4789 80.6077 24.784 81.5625 27.1875 81.5625H96.8781Z" fill="white"/>
</svg>
