<svg width="45" height="45" viewBox="0 0 45 45" fill="none" xmlns="http://www.w3.org/2000/svg">
<path d="M36.3621 1.70464V10.3742L32.3089 14.4274L29.3032 11.4216L28.7225 12.0025L16.2843 24.4404L26.261 34.4169L21.6226 39.0552L21.6227 43.4769H23.2652V39.7356L27.4224 35.5784L29.3032 37.4592L42.3218 24.4405L37.0338 19.1527L42.9618 13.2245V1.70464H41.3194V12.5442L35.8724 17.9912L33.4701 15.5889L38.0044 11.0546V1.70464H36.3621ZM1.70154 2.66335V4.30576H18.1025L21.9921 8.19527C21.7595 8.59398 21.6372 9.04739 21.6377 9.50897C21.6377 10.9523 22.8077 12.1225 24.2508 12.1225C25.694 12.1225 26.864 10.9523 26.864 9.50906C26.864 8.06581 25.694 6.89607 24.2508 6.89607C23.8867 6.89607 23.54 6.97078 23.225 7.10543L18.783 2.66343L1.70154 2.66335ZM1.70154 7.53934V9.18202L13.2263 9.18228L17.1158 13.0718C16.8831 13.4705 16.7607 13.9239 16.7612 14.3855C16.7612 15.8287 17.9312 16.9987 19.3743 16.9987C20.8175 16.9987 21.9876 15.8287 21.9876 14.3855C21.9876 12.9423 20.8176 11.7722 19.3744 11.7722C19.0102 11.7722 18.6636 11.847 18.3486 11.9816L13.9066 7.53961H1.70171L1.70154 7.53934ZM9.03039 12.4157L1.70163 12.4159V14.0585L8.3502 14.0583L12.2397 17.9483C12.0071 18.347 11.8848 18.8004 11.8852 19.2619C11.8852 20.7051 13.0553 21.8752 14.4984 21.8752C15.9416 21.8752 17.1114 20.7051 17.1114 19.2618C17.1114 17.8186 15.9416 16.6485 14.4984 16.6485C14.1341 16.6485 13.7874 16.7232 13.4723 16.8579L9.03039 12.4157ZM29.3032 13.7446L39.999 24.4406L29.3032 35.136L18.6073 24.4406L29.3032 13.7448V13.7446ZM29.193 16.1517L20.8809 24.4639L29.2315 32.8148L30.393 31.6535L23.2038 24.464L30.3546 17.313L29.193 16.1517ZM1.70171 18.0465V22.5471L15.7756 36.621V43.4769H17.4183V33.7628L1.70171 18.0465ZM32.1567 18.7845L30.9955 19.9459L35.5201 24.4707L30.97 29.0208L32.1317 30.1822L37.843 24.4707L32.157 18.7844L32.1567 18.7845ZM29.5261 21.699C27.9924 21.699 26.7495 22.9424 26.7495 24.4758C26.7495 26.009 27.9925 27.2522 29.526 27.2522C31.0596 27.2522 32.3027 26.009 32.3027 24.4758C32.3027 22.9421 31.0596 21.6989 29.526 21.6989L29.5261 21.699ZM1.70154 25.9585V30.4591L10.0411 38.7982V43.4769H11.6836V35.9402L1.70171 25.9585H1.70154ZM39.2641 32.388C37.8209 32.388 36.6509 33.558 36.6509 35.0012C36.6509 36.4444 37.8209 37.6146 39.2641 37.6146C39.6151 37.6146 39.9498 37.5448 40.2555 37.4193L43.474 40.6375V38.3148L41.5051 36.346C41.7494 35.9401 41.8781 35.4751 41.8775 35.0013C41.8775 33.5581 40.7073 32.3881 39.2641 32.3881V32.388ZM1.70154 33.9425V38.4434L4.45199 41.1935L4.45181 43.477H6.09431L6.09484 38.3358L1.70154 33.9425ZM34.3882 37.2644C32.9451 37.2644 31.775 38.4344 31.775 39.8776C31.775 41.3209 32.9448 42.4906 34.3882 42.4906C34.6969 42.4906 34.993 42.4368 35.2679 42.3386L36.4066 43.4768H38.7295L36.5692 41.3166C36.8516 40.8899 37.0019 40.3893 37.0013 39.8776C37.0013 38.4342 35.8313 37.2642 34.3882 37.2642L34.3882 37.2644Z" fill="black"/>
</svg>
