<svg width="45" height="45" viewBox="0 0 45 45" fill="none" xmlns="http://www.w3.org/2000/svg">
<path d="M27.4125 4.99124C27.7684 5.09081 28.1012 5.25955 28.3918 5.4878C28.6825 5.71605 28.9253 5.99935 29.1064 6.32149C29.2875 6.64364 29.4033 6.99832 29.4473 7.36525C29.4912 7.73219 29.4624 8.10419 29.3625 8.45999L21.0544 38.0606C20.853 38.7789 20.3745 39.3878 19.7242 39.7533C19.0738 40.1189 18.3049 40.2111 17.5866 40.0097C16.8683 39.8083 16.2594 39.3298 15.8938 38.6794C15.5283 38.0291 15.4361 37.2602 15.6375 36.5419L23.9457 6.93749C24.0454 6.58177 24.2143 6.24919 24.4426 5.95875C24.671 5.66831 24.9543 5.42571 25.2764 5.2448C25.5986 5.06388 25.9532 4.94821 26.32 4.90438C26.6868 4.86055 27.0587 4.88943 27.4144 4.98936L27.4125 4.99124ZM14.175 12.5569C14.7017 13.0842 14.9976 13.799 14.9976 14.5444C14.9976 15.2897 14.7017 16.0045 14.175 16.5319L8.21253 22.5L14.1788 28.4662C14.7061 28.9939 15.0023 29.7094 15.0021 30.4553C15.002 31.2013 14.7055 31.9167 14.1778 32.444C13.6502 32.9714 12.9347 33.2676 12.1887 33.2674C11.4428 33.2672 10.7274 32.9707 10.2 32.4431L2.2444 24.4875C1.71771 23.9601 1.42188 23.2453 1.42188 22.5C1.42187 21.7547 1.71771 21.0398 2.2444 20.5125L10.1982 12.5569C10.4593 12.2955 10.7695 12.0882 11.1108 11.9467C11.4522 11.8053 11.818 11.7325 12.1875 11.7325C12.557 11.7325 12.9229 11.8053 13.2642 11.9467C13.6056 12.0882 13.9138 12.2955 14.175 12.5569ZM30.825 16.5319C30.5487 16.2744 30.3271 15.9639 30.1733 15.6189C30.0196 15.2739 29.937 14.9015 29.9303 14.5238C29.9236 14.1462 29.9931 13.7711 30.1346 13.4209C30.276 13.0707 30.4866 12.7525 30.7536 12.4855C31.0207 12.2184 31.3388 12.0079 31.689 11.8664C32.0392 11.7249 32.4143 11.6555 32.792 11.6621C33.1696 11.6688 33.542 11.7515 33.887 11.9052C34.232 12.0589 34.5425 12.2805 34.8 12.5569L42.7556 20.5106C43.2829 21.038 43.5791 21.7533 43.5791 22.4991C43.5791 23.2448 43.2829 23.9601 42.7556 24.4875L34.8019 32.4431C34.5408 32.7044 34.2307 32.9116 33.8895 33.0531C33.5483 33.1945 33.1826 33.2673 32.8132 33.2674C32.4438 33.2675 32.078 33.1948 31.7367 33.0536C31.3955 32.9123 31.0853 32.7052 30.8241 32.444C30.5628 32.1829 30.3556 31.8729 30.2141 31.5317C30.0727 31.1905 29.9999 30.8247 29.9998 30.4553C29.9997 30.086 30.0724 29.7202 30.2136 29.3789C30.3549 29.0376 30.562 28.7275 30.8231 28.4662L36.7894 22.5L30.825 16.5319Z" fill="black"/>
</svg>
