<svg width="37" height="37" viewBox="0 0 37 37" fill="none" xmlns="http://www.w3.org/2000/svg">
<path d="M32.2208 3.08331H4.77917C4.32941 3.08331 3.89806 3.26198 3.58003 3.58001C3.262 3.89804 3.08334 4.32938 3.08334 4.77915V32.2208C3.08334 32.6706 3.262 33.1019 3.58003 33.42C3.89806 33.738 4.32941 33.9167 4.77917 33.9167H19.5483V21.9687H15.54V17.3437H19.5483V13.875C19.4653 13.0606 19.5615 12.2379 19.83 11.4646C20.0986 10.6914 20.5331 9.9862 21.1031 9.39861C21.673 8.81103 22.3646 8.35526 23.1294 8.06326C23.8941 7.77127 24.7135 7.65012 25.53 7.70831C26.7299 7.70003 27.9293 7.7618 29.1221 7.89331V12.0558H26.6708C24.7283 12.0558 24.3583 12.9808 24.3583 14.3221V17.2975H28.9833L28.3821 21.9225H24.3583V33.9167H32.2208C32.4435 33.9167 32.6641 33.8728 32.8698 33.7876C33.0756 33.7023 33.2625 33.5774 33.42 33.42C33.5775 33.2625 33.7024 33.0755 33.7876 32.8698C33.8728 32.664 33.9167 32.4435 33.9167 32.2208V4.77915C33.9167 4.55645 33.8728 4.33593 33.7876 4.13018C33.7024 3.92443 33.5775 3.73748 33.42 3.58001C33.2625 3.42254 33.0756 3.29762 32.8698 3.2124C32.6641 3.12718 32.4435 3.08331 32.2208 3.08331Z" fill="white"/>
</svg>
