<svg width="44" height="44" viewBox="0 0 44 44" fill="none" xmlns="http://www.w3.org/2000/svg">
<path d="M22 3.66669C19.5924 3.66669 17.2084 4.14089 14.9841 5.06223C12.7598 5.98357 10.7388 7.33399 9.03638 9.0364C5.59821 12.4746 3.66667 17.1377 3.66667 22C3.66667 30.1034 8.92834 36.9784 16.2067 39.4167C17.1233 39.5634 17.4167 38.995 17.4167 38.5V35.4017C12.3383 36.5017 11.2567 32.945 11.2567 32.945C10.4133 30.8184 9.22167 30.25 9.22167 30.25C7.55334 29.1134 9.35 29.15 9.35 29.15C11.1833 29.2784 12.155 31.0384 12.155 31.0384C13.75 33.825 16.445 33 17.49 32.56C17.655 31.3684 18.1317 30.5617 18.645 30.1034C14.575 29.645 10.3033 28.0684 10.3033 21.0834C10.3033 19.0484 11 17.4167 12.1917 16.115C12.0083 15.6567 11.3667 13.75 12.375 11.275C12.375 11.275 13.915 10.78 17.4167 13.145C18.865 12.7417 20.4417 12.54 22 12.54C23.5583 12.54 25.135 12.7417 26.5833 13.145C30.085 10.78 31.625 11.275 31.625 11.275C32.6333 13.75 31.9917 15.6567 31.8083 16.115C33 17.4167 33.6967 19.0484 33.6967 21.0834C33.6967 28.0867 29.4067 29.6267 25.3183 30.085C25.9783 30.6534 26.5833 31.7717 26.5833 33.4767V38.5C26.5833 38.995 26.8767 39.5817 27.8117 39.4167C35.09 36.96 40.3333 30.1034 40.3333 22C40.3333 19.5925 39.8591 17.2085 38.9378 14.9842C38.0165 12.7599 36.666 10.7388 34.9636 9.0364C33.2612 7.33399 31.2402 5.98357 29.0159 5.06223C26.7916 4.14089 24.4076 3.66669 22 3.66669Z" fill="white"/>
</svg>
