<svg width="45" height="45" viewBox="0 0 45 45" fill="none" xmlns="http://www.w3.org/2000/svg">
<path d="M9.375 24.375V41.25H5.625V24.375H9.375ZM43.125 24.375V28.125H39.375V41.25H35.625V28.125H31.875V24.375H43.125ZM22.5 20.625C25.1271 20.6393 27.6982 21.3853 29.925 22.7794L32.6381 20.0606C29.6616 17.9919 26.1248 16.8806 22.5 16.875C18.9238 16.8817 15.435 17.9807 12.5006 20.025L15.2175 22.7494C17.3989 21.3748 19.9217 20.6389 22.5 20.625Z" fill="black"/>
<path d="M22.5 13.125C27.1168 13.1354 31.6083 14.6273 35.3137 17.3813L37.9894 14.7C33.5605 11.2549 28.1111 9.38147 22.5 9.375C16.9375 9.38163 11.5362 11.2437 7.15125 14.6663L9.825 17.3475C13.4866 14.6147 17.9311 13.1341 22.5 13.125Z" fill="black"/>
<path d="M22.5 5.625C29.1058 5.62586 35.5135 7.88146 40.6632 12.0187L43.3388 9.33937C37.4922 4.51943 30.1524 1.88085 22.5751 1.87504C14.9979 1.86923 7.65406 4.49654 1.80005 9.3075L4.47567 11.9869C9.58214 7.87219 15.9421 5.62738 22.5 5.625ZM22.5 24.375C20.8313 24.375 19.2 24.8698 17.8124 25.797C16.4249 26.7241 15.3434 28.0419 14.7048 29.5836C14.0662 31.1254 13.8991 32.8219 14.2247 34.4586C14.5502 36.0953 15.3538 37.5987 16.5338 38.7787C17.7138 39.9587 19.2173 40.7623 20.854 41.0879C22.4907 41.4134 24.1872 41.2463 25.7289 40.6077C27.2707 39.9691 28.5884 38.8877 29.5156 37.5001C30.4427 36.1126 30.9375 34.4813 30.9375 32.8125C30.9375 30.5747 30.0486 28.4286 28.4663 26.8463C26.8839 25.2639 24.7378 24.375 22.5 24.375ZM22.5 37.5C21.5729 37.5 20.6667 37.2251 19.8958 36.71C19.125 36.1949 18.5241 35.4629 18.1694 34.6063C17.8146 33.7498 17.7217 32.8073 17.9026 31.898C18.0835 30.9887 18.5299 30.1535 19.1855 29.4979C19.841 28.8424 20.6763 28.3959 21.5856 28.2151C22.4948 28.0342 23.4373 28.127 24.2939 28.4818C25.1504 28.8366 25.8825 29.4374 26.3976 30.2083C26.9126 30.9791 27.1875 31.8854 27.1875 32.8125C27.1875 34.0557 26.6937 35.248 25.8146 36.1271C24.9355 37.0061 23.7432 37.5 22.5 37.5Z" fill="black"/>
</svg>
