<svg width="84" height="114" viewBox="0 0 84 114" fill="none" xmlns="http://www.w3.org/2000/svg">
<path d="M27.088 87.7646C27.088 87.7646 22.7574 90.283 30.1701 91.1351C39.1505 92.1595 43.74 92.0128 53.6366 90.1396C53.6366 90.1396 56.2386 91.771 59.8719 93.1842C37.6871 102.692 9.66257 92.6333 27.088 87.7646ZM24.377 75.3569C24.377 75.3569 19.5198 78.9525 26.938 79.7196C36.5311 80.7092 44.1068 80.7903 57.2161 78.266C57.2161 78.266 59.0293 80.1042 61.8804 81.1096C35.0571 88.9531 5.18104 81.7281 24.377 75.3569Z" fill="#5382A1"/>
<path d="M47.2309 54.3096C52.6975 60.603 45.7947 66.2665 45.7947 66.2665C45.7947 66.2665 59.6748 59.1012 53.3003 50.1283C47.3468 41.7611 42.7809 37.6031 67.4976 23.2686C67.4976 23.2686 28.7007 32.9585 47.2309 54.3096Z" fill="#E76F00"/>
<path d="M76.5725 96.9419C76.5725 96.9419 79.7773 99.5823 73.0429 101.625C60.2375 105.505 19.7449 106.676 8.49612 101.78C4.45264 100.021 12.0356 97.5798 14.4207 97.0673C16.9083 96.5278 18.33 96.6286 18.33 96.6286C13.8331 93.4605 -10.7363 102.849 5.85012 105.537C51.0831 112.873 88.3053 102.234 76.5725 96.9419ZM29.1703 62.5013C29.1703 62.5013 8.57356 67.3936 21.8767 69.1697C27.4936 69.9218 38.6908 69.7518 49.1209 68.8777C57.645 68.1591 66.2041 66.6301 66.2041 66.6301C66.2041 66.6301 63.1985 67.9173 61.024 69.4021C40.108 74.9031 -0.297956 72.344 11.3344 66.717C21.1719 61.9618 29.1703 62.5013 29.1703 62.5013ZM66.1191 83.1541C87.3816 72.1055 77.5507 61.488 70.6889 62.9186C69.007 63.2684 68.2572 63.5716 68.2572 63.5716C68.2572 63.5716 68.8816 62.5938 70.074 62.1705C83.6486 57.3979 94.0885 76.2461 65.6919 83.7109C65.6919 83.7113 66.021 83.4173 66.1191 83.1541Z" fill="#5382A1"/>
<path d="M53.3003 0.121727C53.3003 0.121727 65.0758 11.9014 42.1319 30.0142C23.7336 44.5443 37.9365 52.8288 42.1244 62.2942C31.3849 52.6047 23.5033 44.0747 28.791 36.1361C36.5515 24.4821 58.0513 18.8324 53.3003 0.121727Z" fill="#E76F00"/>
<path d="M31.2598 113.093C51.6689 114.4 83.0091 112.368 83.7513 102.711C83.7513 102.711 82.3246 106.373 66.8843 109.28C49.4648 112.558 27.9805 112.175 15.2378 110.074C15.2381 110.074 17.8461 112.233 31.2598 113.093Z" fill="#5382A1"/>
</svg>
