<svg width="111" height="111" viewBox="0 0 111 111" fill="none" xmlns="http://www.w3.org/2000/svg">
<path d="M0 55.5C0 71.6236 24.8484 84.6956 55.5 84.6956C86.1516 84.6956 111 71.6236 111 55.5C111 39.3764 86.1507 26.3044 55.5 26.3044C24.8493 26.3044 0 39.3764 0 55.5Z" fill="url(#paint0_radial_73_117)"/>
<path d="M55.5 82.5276C84.954 82.5276 108.832 70.426 108.832 55.5C108.832 40.5722 84.954 28.4724 55.5 28.4724C26.046 28.4724 2.16797 40.5722 2.16797 55.5C2.16797 70.426 26.046 82.5276 55.5 82.5276Z" fill="#777BB3"/>
<path d="M30.1538 58.8508C32.5758 58.8508 34.3831 58.4042 35.5269 57.524C36.6594 56.6516 37.4408 55.1419 37.8509 53.0363C38.2325 51.0678 38.0868 49.6942 37.4173 48.9519C36.734 48.194 35.2554 47.8098 33.0233 47.8098H29.1522L27.0076 58.8508H30.1538ZM17.4937 72.4509C17.4049 72.4508 17.3172 72.431 17.2369 72.393C17.1567 72.355 17.0858 72.2997 17.0294 72.2311C16.9731 72.1624 16.9326 72.0821 16.9109 71.996C16.8892 71.9099 16.8869 71.82 16.904 71.7329L22.5902 42.4757C22.617 42.3389 22.6905 42.2157 22.798 42.127C22.9055 42.0383 23.0405 41.9896 23.1799 41.9892H35.4367C39.2887 41.9892 42.1557 43.0351 43.9585 45.0981C45.7692 47.1707 46.3294 50.0705 45.6209 53.7136C45.3322 55.1974 44.8361 56.5753 44.1467 57.8102C43.4293 59.0805 42.5136 60.2281 41.4342 61.2096C40.1065 62.4514 38.6037 63.3533 36.9707 63.8831C35.3647 64.4069 33.3008 64.6723 30.8397 64.6723H25.8759L24.459 71.9636C24.4322 72.1008 24.3586 72.2244 24.2507 72.3134C24.1428 72.4023 24.0073 72.4509 23.8675 72.4509H17.4937Z" fill="black"/>
<path d="M29.6492 48.4116H33.0234C35.7177 48.4116 36.6534 49.003 36.9717 49.356C37.4981 49.9405 37.5987 51.1745 37.2587 52.9219C36.878 54.8791 36.1721 56.2675 35.1601 57.0462C34.1247 57.844 32.4389 58.2481 30.1539 58.2481H27.7379L29.6492 48.4116ZM35.4368 41.3874H23.1808C22.9013 41.3874 22.6305 41.4846 22.4147 41.6622C22.199 41.8399 22.0516 42.087 21.998 42.3613L16.3118 71.6193C16.2782 71.7936 16.2835 71.9731 16.3274 72.1451C16.3712 72.3171 16.4525 72.4773 16.5654 72.6142C16.6783 72.7511 16.8201 72.8615 16.9806 72.9373C17.1411 73.0131 17.3163 73.0525 17.4938 73.0528H23.8676C24.1471 73.0525 24.4178 72.9551 24.6334 72.7773C24.849 72.5995 24.9961 72.3523 25.0496 72.078L26.3721 65.2741H30.8389C33.3642 65.2741 35.4905 64.9983 37.1581 64.4555C38.8726 63.8987 40.45 62.9544 41.8461 61.6484C42.9705 60.6246 43.9246 59.4282 44.6723 58.1042C45.3929 56.8147 45.9115 55.3751 46.2116 53.8281C46.9573 49.9925 46.3512 46.9218 44.4113 44.7018C42.4896 42.5017 39.4701 41.3865 35.4368 41.3865V41.3874ZM26.2767 59.4518H30.1539C32.7236 59.4524 34.6372 58.9682 35.8946 57.9993C37.1521 57.0315 38.0013 55.4153 38.4424 53.1508C38.8633 50.9759 38.6711 49.4416 37.8658 48.5478C37.0593 47.654 35.4451 47.2071 33.0234 47.2071H28.6562L26.2767 59.4518ZM35.4376 42.5893C39.1249 42.5893 41.8141 43.5571 43.5051 45.4927C45.1961 47.4282 45.7048 50.1298 45.0313 53.5974C44.7527 55.0265 44.2829 56.3325 43.6221 57.5154C42.9602 58.6994 42.0956 59.7825 41.0284 60.7647C39.7565 61.9556 38.3424 62.804 36.7861 63.3099C35.2304 63.8163 33.2483 64.0693 30.8398 64.0687H25.38L23.8685 71.8474H17.4947L23.1817 42.5893H35.4376Z" fill="white"/>
<path d="M60.234 64.6722C60.1452 64.6723 60.0574 64.6528 59.977 64.6149C59.8966 64.5771 59.8255 64.5219 59.769 64.4533C59.7124 64.3847 59.6718 64.3045 59.6499 64.2184C59.6281 64.1322 59.6256 64.0423 59.6426 63.9551L62.1575 51.0097C62.3977 49.7783 62.3387 48.8955 61.9927 48.5209C61.7802 48.2928 61.1437 47.9104 59.2611 47.9104H54.7031L51.5414 64.1857C51.5142 64.3228 51.4403 64.4462 51.3323 64.5347C51.2242 64.6233 51.0888 64.6716 50.9491 64.6714H44.6273C44.5385 64.6714 44.4507 64.6519 44.3704 64.6141C44.29 64.5763 44.219 64.5212 44.1624 64.4527C44.1058 64.3843 44.065 64.3042 44.043 64.2182C44.021 64.1321 44.0182 64.0423 44.035 63.9551L49.722 34.697C49.7489 34.56 49.8226 34.4365 49.9305 34.3478C50.0384 34.259 50.1737 34.2105 50.3134 34.2105H56.6352C56.724 34.2105 56.8117 34.2301 56.8921 34.2678C56.9725 34.3056 57.0435 34.3607 57.1001 34.4292C57.1567 34.4976 57.1974 34.5777 57.2195 34.6637C57.2415 34.7498 57.2442 34.8396 57.2275 34.9268L55.8556 41.9892H60.7578C64.4928 41.9892 67.025 42.6465 68.5001 44.002C70.0029 45.3834 70.4729 47.5921 69.8945 50.5692L67.2487 64.1857C67.2216 64.3226 67.1478 64.4459 67.04 64.5345C66.9321 64.623 66.7969 64.6714 66.6573 64.6714L60.234 64.6722Z" fill="black"/>
<path d="M56.636 33.6078H50.3133C50.0337 33.6079 49.7628 33.7052 49.547 33.883C49.3312 34.0608 49.184 34.3081 49.1305 34.5826L43.4443 63.8397C43.4106 64.0141 43.4158 64.1937 43.4596 64.3658C43.5033 64.5379 43.5846 64.6982 43.6975 64.8352C43.8104 64.9723 43.9523 65.0827 44.1128 65.1585C44.2734 65.2344 44.4487 65.2739 44.6263 65.2741H50.9489C51.2286 65.274 51.4995 65.1767 51.7152 64.9989C51.931 64.8211 52.0783 64.5738 52.1318 64.2994L55.199 48.5122H59.2592C61.1393 48.5122 61.5347 48.9137 61.5494 48.9319C61.6639 49.0533 61.8139 49.6213 61.5659 50.8952L59.0511 63.8397C59.0173 64.0142 59.0226 64.1939 59.0664 64.366C59.1102 64.5382 59.1915 64.6985 59.3046 64.8356C59.4176 64.9726 59.5595 65.083 59.7202 65.1588C59.8808 65.2346 60.0563 65.274 60.2339 65.2741H66.658C66.9375 65.2738 67.2082 65.1764 67.4238 64.9986C67.6394 64.8208 67.7865 64.5737 67.84 64.2994L70.4858 50.6845C71.1059 47.4881 70.5751 45.0911 68.9075 43.5588C67.3154 42.0967 64.6496 41.3865 60.7577 41.3865H56.5865L57.8188 35.043C57.8527 34.8686 57.8476 34.6888 57.8038 34.5165C57.7601 34.3442 57.6787 34.1838 57.5657 34.0466C57.4527 33.9095 57.3107 33.799 57.15 33.7231C56.9892 33.6473 56.8137 33.6079 56.636 33.6078ZM56.636 34.8132L55.1245 42.5902H60.7577C64.3022 42.5902 66.7468 43.2088 68.0915 44.446C69.4374 45.682 69.8415 47.6852 69.3038 50.4556L66.6572 64.0695H60.2339L62.7496 51.1242C63.0358 49.6517 62.9303 48.6475 62.4331 48.1116C61.9359 47.5762 60.8785 47.3085 59.2609 47.3085H54.2061L50.9489 64.0687H44.6254L50.3124 34.8106H56.636V34.8132Z" fill="white"/>
<path d="M79.8991 58.8508C82.3212 58.8508 84.1293 58.4042 85.274 57.524C86.4048 56.6516 87.187 55.1419 87.5972 53.0363C87.9787 51.0678 87.8339 49.6942 87.1636 48.9519C86.4802 48.194 85.0017 47.8098 82.7695 47.8098H78.8993L76.753 58.8508H79.8991ZM67.2417 72.4509C67.1527 72.4511 67.0648 72.4315 66.9843 72.3936C66.9038 72.3557 66.8328 72.3004 66.7762 72.2317C66.7196 72.1631 66.679 72.0827 66.6572 71.9964C66.6355 71.9102 66.6331 71.8202 66.6502 71.7329L72.3364 42.4757C72.3633 42.3387 72.437 42.2152 72.5449 42.1265C72.6528 42.0377 72.7881 41.9892 72.9278 41.9892H85.1838C89.0358 41.9892 91.9027 43.0351 93.7048 45.0981C95.5163 47.1707 96.0756 50.0705 95.3672 53.7136C95.0961 55.1485 94.5988 56.5313 93.8938 57.8102C93.1764 59.0805 92.2606 60.2281 91.1812 61.2096C89.8544 62.4514 88.3499 63.3533 86.7178 63.8831C85.1118 64.4069 83.0479 64.6723 80.5859 64.6723H75.623L74.2069 71.9636C74.1801 72.1009 74.1064 72.2247 73.9983 72.3136C73.8902 72.4025 73.7546 72.4511 73.6146 72.4509H67.2417Z" fill="black"/>
<path d="M79.3954 48.4116H82.7696C85.4639 48.4116 86.3996 49.003 86.717 49.356C87.246 49.9405 87.3449 51.1745 87.0058 52.9219C86.6242 54.8791 85.9184 56.2675 84.9064 57.0462C83.8701 57.844 82.1842 58.2481 79.9001 58.2481H77.4841L79.3954 48.4116ZM85.183 41.3874H72.927C72.6477 41.3876 72.3771 41.4849 72.1615 41.6625C71.9459 41.8401 71.7987 42.0871 71.745 42.3613L66.058 71.6193C66.0244 71.7936 66.0298 71.9733 66.0737 72.1453C66.1175 72.3174 66.1989 72.4776 66.3119 72.6145C66.4249 72.7515 66.5668 72.8618 66.7274 72.9375C66.888 73.0133 67.0633 73.0526 67.2409 73.0528H73.6147C73.8942 73.0525 74.1649 72.9551 74.3805 72.7773C74.5961 72.5995 74.7432 72.3523 74.7967 72.078L76.1191 65.2741H80.5852C83.1095 65.2741 85.2367 64.9983 86.9035 64.4555C88.6188 63.8987 90.1962 62.9544 91.5932 61.6475C92.7172 60.624 93.671 59.4279 94.4185 58.1042C95.14 56.8147 95.6569 55.3751 95.9578 53.8281C96.7036 49.9925 96.0983 46.9218 94.1575 44.7018C92.2358 42.5017 89.2171 41.3865 85.1821 41.3865L85.183 41.3874ZM76.0229 59.4518H79.8992C82.469 59.4524 84.3831 58.9682 85.6417 57.9993C86.8991 57.0315 87.7478 55.4153 88.1878 53.1508C88.6104 50.9759 88.4182 49.4416 87.6111 48.5478C86.804 47.654 85.1902 47.2071 82.7696 47.2071H78.4033L76.0229 59.4518ZM85.183 42.5893C88.8703 42.5893 91.5594 43.5571 93.2504 45.4927C94.9414 47.4282 95.4499 50.1298 94.7758 53.5974C94.4983 55.0265 94.0289 56.3325 93.3675 57.5154C92.7061 58.6994 91.8413 59.7825 90.7729 60.7647C89.501 61.9556 88.0869 62.804 86.5306 63.3099C84.9754 63.8163 82.9936 64.0693 80.5852 64.0687H75.1262L73.613 71.8474H67.2391L72.9262 42.5893H85.183Z" fill="white"/>
<defs>
<radialGradient id="paint0_radial_73_117" cx="0" cy="0" r="1" gradientUnits="userSpaceOnUse" gradientTransform="translate(33.3225 36.5684) scale(72.8796 72.8796)">
<stop stop-color="#AEB2D5"/>
<stop offset="0.3" stop-color="#AEB2D5"/>
<stop offset="0.75" stop-color="#484C89"/>
<stop offset="1" stop-color="#484C89"/>
</radialGradient>
</defs>
</svg>
