<svg width="93" height="93" viewBox="0 0 93 93" fill="none" xmlns="http://www.w3.org/2000/svg">
<path d="M46.1063 0.026062C22.554 0.026062 24.0246 10.2076 24.0246 10.2076L24.0507 20.7559H46.5262V23.9228H15.1238C15.1238 23.9228 0.0527344 22.2189 0.0527344 45.9082C0.0527344 69.5981 13.2071 68.7579 13.2071 68.7579H21.0577V57.7649C21.0577 57.7649 20.6344 44.6519 34.0021 44.6519H56.2938C56.2938 44.6519 68.8179 44.8536 68.8179 32.5858V12.3018C68.8179 12.3018 70.72 0.026062 46.1063 0.026062ZM33.7133 7.11961C34.2444 7.11913 34.7704 7.22306 35.2612 7.42545C35.7519 7.62784 36.1979 7.92471 36.5734 8.29908C36.949 8.67345 37.2468 9.11797 37.4498 9.6072C37.6528 10.0964 37.7571 10.6208 37.7566 11.1502C37.7571 11.6796 37.6528 12.204 37.4498 12.6932C37.2468 13.1824 36.949 13.627 36.5734 14.0013C36.1979 14.3757 35.7519 14.6726 35.2612 14.875C34.7704 15.0773 34.2444 15.1813 33.7133 15.1808C33.1822 15.1813 32.6562 15.0773 32.1654 14.875C31.6746 14.6726 31.2287 14.3757 30.8532 14.0013C30.4776 13.627 30.1798 13.1824 29.9768 12.6932C29.7737 12.204 29.6695 11.6796 29.67 11.1502C29.6695 10.6208 29.7737 10.0964 29.9768 9.6072C30.1798 9.11797 30.4776 8.67345 30.8532 8.29908C31.2287 7.92471 31.6746 7.62784 32.1654 7.42545C32.6562 7.22306 33.1822 7.11913 33.7133 7.11961Z" fill="url(#paint0_linear_73_154)"/>
<path d="M46.775 92.0285C70.3272 92.0285 68.8567 81.847 68.8567 81.847L68.8305 71.2991H46.3547V68.1322H77.7571C77.7571 68.1322 92.8282 69.836 92.8282 46.1461C92.8282 22.4565 79.6737 23.2967 79.6737 23.2967H71.8232V34.2893C71.8232 34.2893 72.2465 47.4023 58.8788 47.4023H36.5871C36.5871 47.4023 24.063 47.2006 24.063 59.4688V79.7532C24.063 79.7532 22.1612 92.0285 46.7746 92.0285M59.1676 84.9357C58.6365 84.9362 58.1105 84.8323 57.6197 84.6299C57.129 84.4275 56.683 84.1306 56.3075 83.7562C55.9319 83.3819 55.6341 82.9374 55.4311 82.4481C55.2281 81.9589 55.1238 81.4346 55.1243 80.9051C55.1238 80.3756 55.228 79.8513 55.431 79.362C55.634 78.8727 55.9318 78.4282 56.3073 78.0538C56.6829 77.6794 57.1288 77.3825 57.6196 77.18C58.1104 76.9776 58.6365 76.8737 59.1676 76.8742C59.6987 76.8737 60.2247 76.9776 60.7155 77.18C61.2063 77.3824 61.6522 77.6793 62.0277 78.0536C62.4033 78.428 62.7011 78.8725 62.9041 79.3618C63.1071 79.851 63.2114 80.3753 63.2109 80.9048C63.2114 81.4342 63.1071 81.9585 62.9041 82.4478C62.7011 82.937 62.4033 83.3815 62.0277 83.7559C61.6522 84.1302 61.2063 84.4271 60.7155 84.6295C60.2247 84.8319 59.6987 84.9362 59.1676 84.9357Z" fill="url(#paint1_linear_73_154)"/>
<defs>
<linearGradient id="paint0_linear_73_154" x1="891.622" y1="827.533" x2="5474.94" y2="5379.46" gradientUnits="userSpaceOnUse">
<stop stop-color="#387EB8"/>
<stop offset="1" stop-color="#366994"/>
</linearGradient>
<linearGradient id="paint1_linear_73_154" x1="1340.02" y1="1437.8" x2="6262.69" y2="6106.06" gradientUnits="userSpaceOnUse">
<stop stop-color="#FFE052"/>
<stop offset="1" stop-color="#FFC331"/>
</linearGradient>
</defs>
</svg>
