<svg width="556" height="462" viewBox="0 0 556 462" fill="none" xmlns="http://www.w3.org/2000/svg">
<path opacity="0.1" d="M240.239 14.334L17.5297 196.41L45.7171 219.459L268.386 37.3829L240.239 14.334ZM17.5297 265.557L240.199 447.666L268.386 424.585L45.7171 242.508L17.5297 265.557ZM324.801 447.633L547.47 265.59L519.283 242.508L296.614 424.585L324.801 447.633ZM547.47 196.378L324.801 14.334L296.614 37.3829L519.283 219.459L547.47 196.378ZM547.47 265.59C553.028 261.048 557.436 255.623 560.444 249.688C563.452 243.753 565 237.392 565 230.967C565 224.543 563.452 218.181 560.444 212.246C557.436 206.311 553.028 200.919 547.47 196.378L519.283 219.427C521.139 220.941 522.612 222.74 523.617 224.72C524.622 226.7 525.139 228.823 525.139 230.967C525.139 233.111 524.622 235.234 523.617 237.215C522.612 239.195 521.139 240.994 519.283 242.508L547.47 265.59ZM240.199 447.666C245.753 452.21 252.387 455.815 259.645 458.275C266.903 460.734 274.683 462 282.54 462C290.397 462 298.176 460.734 305.435 458.275C312.693 455.815 319.287 452.21 324.841 447.666L296.614 424.617C294.762 426.135 292.602 427.339 290.18 428.161C287.758 428.983 285.162 429.406 282.54 429.406C279.918 429.406 277.321 428.983 274.9 428.161C272.478 427.339 270.278 426.135 268.426 424.617L240.199 447.666ZM17.5297 196.41C11.9723 200.952 7.56377 206.377 4.55596 212.312C1.54814 218.247 0 224.608 0 231.033C0 237.457 1.54814 243.819 4.55596 249.754C7.56377 255.689 11.9723 261.081 17.5297 265.622L45.7171 242.541C43.8607 241.027 42.3878 239.26 41.3829 237.28C40.3779 235.3 39.8606 233.177 39.8606 231.033C39.8606 228.889 40.3779 226.766 41.3829 224.785C42.3878 222.805 43.8607 220.973 45.7171 219.459L17.5297 196.41ZM268.386 37.4155C270.238 35.8975 272.438 34.6931 274.86 33.8713C277.282 33.0496 279.878 32.6266 282.5 32.6266C285.122 32.6266 287.718 33.0496 290.14 33.8713C292.562 34.6931 294.762 35.8975 296.614 37.4155L324.801 14.334C319.247 9.78974 312.613 6.18489 305.355 3.7254C298.097 1.26591 290.317 0 282.46 0C274.603 0 266.824 1.26591 259.565 3.7254C252.307 6.18489 245.713 9.78974 240.159 14.334L268.386 37.4155ZM188.648 79.5685L228.517 112.169L256.745 89.088L216.875 56.487L188.648 79.5685ZM282.5 149.498C277.213 149.498 272.143 147.78 268.404 144.723C264.666 141.666 262.565 137.52 262.565 133.197H222.696C222.696 146.167 228.997 158.605 240.212 167.776C251.428 176.946 266.639 182.099 282.5 182.099V149.498ZM302.435 133.197C302.435 137.52 300.334 141.666 296.596 144.723C292.857 147.78 287.787 149.498 282.5 149.498V182.099C298.361 182.099 313.572 176.946 324.788 167.776C336.003 158.605 342.304 146.167 342.304 133.197H302.435ZM282.5 116.897C287.787 116.897 292.857 118.614 296.596 121.671C300.334 124.728 302.435 128.874 302.435 133.197H342.304C342.304 120.228 336.003 107.789 324.788 98.6186C313.572 89.4478 298.361 84.2957 282.5 84.2957V116.897ZM282.5 84.2957C266.639 84.2957 251.428 89.4478 240.212 98.6186C228.997 107.789 222.696 120.228 222.696 133.197H262.565C262.565 128.874 264.666 124.728 268.404 121.671C272.143 118.614 277.213 116.897 282.5 116.897V84.2957ZM308.255 177.339L368.059 226.24L396.247 203.159L336.443 154.257L308.255 177.339ZM402.107 247.3C396.82 247.3 391.75 245.583 388.012 242.526C384.273 239.469 382.173 235.323 382.173 231H342.304C342.304 243.969 348.604 256.408 359.82 265.579C371.035 274.749 386.246 279.901 402.107 279.901V247.3ZM422.042 231C422.042 235.323 419.942 239.469 416.203 242.526C412.465 245.583 407.394 247.3 402.107 247.3V279.901C417.968 279.901 433.18 274.749 444.395 265.579C455.61 256.408 461.911 243.969 461.911 231H422.042ZM402.107 214.7C407.394 214.7 412.465 216.417 416.203 219.474C419.942 222.531 422.042 226.677 422.042 231H461.911C461.911 218.031 455.61 205.592 444.395 196.421C433.18 187.251 417.968 182.099 402.107 182.099V214.7ZM402.107 182.099C386.246 182.099 371.035 187.251 359.82 196.421C348.604 205.592 342.304 218.031 342.304 231H382.173C382.173 226.677 384.273 222.531 388.012 219.474C391.75 216.417 396.82 214.7 402.107 214.7V182.099ZM262.565 165.798V296.202H302.435V165.798H262.565ZM282.5 345.103C277.213 345.103 272.143 343.386 268.404 340.329C264.666 337.272 262.565 333.126 262.565 328.803H222.696C222.696 341.772 228.997 354.211 240.212 363.381C251.428 372.552 266.639 377.704 282.5 377.704V345.103ZM302.435 328.803C302.435 333.126 300.334 337.272 296.596 340.329C292.857 343.386 287.787 345.103 282.5 345.103V377.704C298.361 377.704 313.572 372.552 324.788 363.381C336.003 354.211 342.304 341.772 342.304 328.803H302.435ZM282.5 312.502C287.787 312.502 292.857 314.22 296.596 317.277C300.334 320.334 302.435 324.48 302.435 328.803H342.304C342.304 315.833 336.003 303.395 324.788 294.224C313.572 285.054 298.361 279.901 282.5 279.901V312.502ZM282.5 279.901C266.639 279.901 251.428 285.054 240.212 294.224C228.997 303.395 222.696 315.833 222.696 328.803H262.565C262.565 324.48 264.666 320.334 268.404 317.277C272.143 314.22 277.213 312.502 282.5 312.502V279.901Z" fill="white"/>
</svg>
